<svg id="Layer_3" data-name="Layer 3" xmlns="http://www.w3.org/2000/svg" xmlns:xlink="http://www.w3.org/1999/xlink" viewBox="0 0 400 800"><defs><style>.cls-1,.cls-2,.cls-3,.cls-4,.cls-5,.cls-6,.cls-7,.cls-8,.cls-9{opacity:0.3;}.cls-1{fill:url(#linear-gradient);}.cls-2{fill:url(#linear-gradient-2);}.cls-3{fill:url(#linear-gradient-3);}.cls-4{fill:url(#linear-gradient-4);}.cls-5{fill:url(#linear-gradient-5);}.cls-6{fill:url(#linear-gradient-6);}.cls-7{fill:url(#linear-gradient-7);}.cls-8{fill:url(#linear-gradient-8);}.cls-9{fill:url(#linear-gradient-9);}</style><linearGradient id="linear-gradient" x1="25" y1="800" x2="25" y2="556" gradientUnits="userSpaceOnUse"><stop offset="0" stop-color="#fff"/><stop offset="0.08" stop-color="#f6f9fb"/><stop offset="0.23" stop-color="#dce8f2"/><stop offset="0.41" stop-color="#b2cce3"/><stop offset="0.62" stop-color="#79a5cd"/><stop offset="0.86" stop-color="#3075b2"/><stop offset="0.99" stop-color="#0256a1"/></linearGradient><linearGradient id="linear-gradient-2" x1="255" x2="255" y2="440" xlink:href="#linear-gradient"/><linearGradient id="linear-gradient-3" x1="377.5" y1="799.5" x2="377.5" y2="372.5" xlink:href="#linear-gradient"/><linearGradient id="linear-gradient-4" x1="209" x2="209" y2="456" xlink:href="#linear-gradient"/><linearGradient id="linear-gradient-5" x1="335.5" y1="797.5" x2="335.5" y2="395.5" xlink:href="#linear-gradient"/><linearGradient id="linear-gradient-6" x1="296" x2="296" y2="416" xlink:href="#linear-gradient"/><linearGradient id="linear-gradient-7" x1="117" x2="117" y2="506" xlink:href="#linear-gradient"/><linearGradient id="linear-gradient-8" x1="71" x2="71" y2="531" xlink:href="#linear-gradient"/><linearGradient id="linear-gradient-9" x1="163" x2="163" y2="482" xlink:href="#linear-gradient"/></defs><rect class="cls-1" x="11.5" y="556" width="27" height="244"/><rect class="cls-2" x="241.5" y="440" width="27" height="360"/><rect class="cls-3" x="364" y="372.5" width="27" height="427"/><rect class="cls-4" x="195.5" y="456" width="27" height="344"/><rect class="cls-5" x="322.13" y="395.5" width="26.75" height="402"/><rect class="cls-6" x="282.5" y="416" width="27" height="384"/><rect class="cls-7" x="103.5" y="506" width="27" height="294"/><rect class="cls-8" x="57.5" y="531" width="27" height="269"/><rect class="cls-9" x="149.5" y="482" width="27" height="318"/></svg>