<svg xmlns="http://www.w3.org/2000/svg" viewBox="0 0 500 500"><defs><style>.cls-1{fill:none;stroke:#9fb0cf;stroke-miterlimit:10;stroke-width:2px;}.cls-2{fill:#fff;}</style></defs><g id="Layer_7_copy_3" data-name="Layer 7 copy 3"><rect class="cls-1" x="15.2" y="201.2" width="480" height="104.36" rx="12" transform="translate(249.4 -106.2) rotate(44.28)"/><g id="Layer_7" data-name="Layer 7"><rect class="cls-1" x="15.2" y="201.2" width="480" height="104.36" rx="12" transform="translate(-104.42 254.67) rotate(-45)"/></g><g id="Layer_7_copy" data-name="Layer 7 copy"><rect class="cls-1" x="15.2" y="201.2" width="480" height="104.36" rx="12" transform="translate(-103.85 273.75) rotate(-48.04)"/></g><g id="Layer_7_copy_2" data-name="Layer 7 copy 2"><rect class="cls-1" x="15.2" y="201.2" width="480" height="104.36" rx="12" transform="translate(-102.26 292.76) rotate(-51.08)"/></g><g id="Layer_7_copy_5" data-name="Layer 7 copy 5"><rect class="cls-1" x="15.2" y="201.2" width="480" height="104.36" rx="12" transform="translate(287.52 -104.79) rotate(50.36)"/></g><g id="Layer_7_copy_4" data-name="Layer 7 copy 4"><rect class="cls-1" x="15.2" y="201.2" width="480" height="104.36" rx="12" transform="matrix(0.68, 0.74, -0.74, 0.68, 268.47, -106)"/></g></g><g id="Layer_4" data-name="Layer 4"><path class="cls-2" d="M77.45,239.65l-3.4,2.61a18.63,18.63,0,0,0-6.76-5.55,19.72,19.72,0,0,0-8.65-1.89,19.12,19.12,0,0,0-9.55,2.47,17.87,17.87,0,0,0-6.82,6.65,18.44,18.44,0,0,0-2.41,9.39,17.65,17.65,0,0,0,5.4,13.16,18.77,18.77,0,0,0,13.64,5.27,19.18,19.18,0,0,0,15.15-7.09l3.4,2.58a21.7,21.7,0,0,1-8,6.34,25.12,25.12,0,0,1-10.76,2.24q-11.31,0-17.84-7.52A22.7,22.7,0,0,1,35.32,253,21.37,21.37,0,0,1,42,237a22.88,22.88,0,0,1,16.63-6.46A24.46,24.46,0,0,1,69.48,233,21.16,21.16,0,0,1,77.45,239.65Z"/><path class="cls-2" d="M123.22,230.57a22.39,22.39,0,0,1,16.39,6.53,22.66,22.66,0,0,1-16,38.73,22,22,0,0,1-16.18-6.56,21.55,21.55,0,0,1-6.59-15.88,23,23,0,0,1,3-11.51,22.17,22.17,0,0,1,19.42-11.31Zm.19,4.19a17.72,17.72,0,0,0-9.06,2.49,17.93,17.93,0,0,0-6.7,6.72,18.69,18.69,0,0,0-2.4,9.41,18.13,18.13,0,0,0,18.16,18.27,18.47,18.47,0,0,0,9.29-2.44,17.37,17.37,0,0,0,6.66-6.65,18.69,18.69,0,0,0,2.39-9.39,18.2,18.2,0,0,0-2.39-9.28,17.88,17.88,0,0,0-6.73-6.64A18.27,18.27,0,0,0,123.41,234.76Z"/><path class="cls-2" d="M204.23,240.82a18.76,18.76,0,0,0-9.8-7.61q-4.37-1.56-14-1.56h-8.94v22.54h4.13V235.87h3q9.29,0,13.33,1.23a15.31,15.31,0,0,1,8.41,6.06,18.47,18.47,0,0,1,3,10.66,17.47,17.47,0,0,1-2.78,10.05,14.34,14.34,0,0,1-7.65,5.7q-3.45,1.11-12.39,1.11h-5c-1.57,0-2.55-.06-4.13-.06v4.13h13.71q8.06,0,12.52-2.34a18,18,0,0,0,7.27-7.27,22.61,22.61,0,0,0,2.8-11.4A23.19,23.19,0,0,0,204.23,240.82Z"/><path class="cls-2" d="M232.75,274.75h24.52v-4.22H237.06V253.6h20.21v-4.22H232.75Z"/><path class="cls-2" d="M257.45,235.87v-4.22h-24.7v4.19l4.31,0h20.39Z"/><path class="cls-2" d="M277,266.72l3.67-2.19q3.87,7.11,8.93,7.12a8.45,8.45,0,0,0,4.07-1,7.14,7.14,0,0,0,2.91-2.71,7,7,0,0,0,1-3.6,7.37,7.37,0,0,0-1.46-4.25,35.06,35.06,0,0,0-7.39-6.91q-5.38-4.08-6.71-5.89a10.78,10.78,0,0,1-2.28-6.59,10,10,0,0,1,1.35-5.13,9.65,9.65,0,0,1,3.79-3.65,11,11,0,0,1,5.32-1.33,11.31,11.31,0,0,1,5.7,1.51,19.85,19.85,0,0,1,5.61,5.55L298,240.3a16.81,16.81,0,0,0-4.14-4.25,7.21,7.21,0,0,0-3.74-1,5.88,5.88,0,0,0-4.26,1.59,5.14,5.14,0,0,0-1.66,3.89,6.68,6.68,0,0,0,.59,2.73A10,10,0,0,0,287,246.1c.56.55,2.42,2,5.56,4.3q5.6,4.14,7.68,7.36a11.83,11.83,0,0,1,2.08,6.47,11,11,0,0,1-3.56,8.15,12,12,0,0,1-8.66,3.45,12.69,12.69,0,0,1-7.12-2.09A19.24,19.24,0,0,1,277,266.72Z"/><path class="cls-2" d="M327.38,231.65h4.3v43.1h-4.3Z"/><path class="cls-2" d="M391.72,268.19a17.21,17.21,0,0,1-11,3.54,20.69,20.69,0,0,1-10.08-2.5,18.53,18.53,0,0,1-7.21-6.89,17.77,17.77,0,0,1-2.61-9.24,17.44,17.44,0,0,1,2.52-9,18.08,18.08,0,0,1,7.11-6.75,19.91,19.91,0,0,1,9.65-2.49,21.21,21.21,0,0,1,8.36,1.83,25.28,25.28,0,0,1,7.9,5.38l3.34-3.17a30.86,30.86,0,0,0-9.43-6.34,27,27,0,0,0-10.32-2,24.56,24.56,0,0,0-12.12,3,21.94,21.94,0,0,0-8.44,8.25,22.27,22.27,0,0,0-3.08,11.4,21.66,21.66,0,0,0,5.36,14.5q7,8.15,18.93,8.14,9.84,0,15.72-5.87a19.92,19.92,0,0,0,1.54-1.77Z"/><path class="cls-2" d="M402.29,254.1H383.71v4.09H402A31.29,31.29,0,0,0,402.29,254.1Z"/><path class="cls-2" d="M461,231.65h-4.25v33l-28.68-33h-.94v43.1h4.46V242.12l21.86,25.07H461Z"/></g></svg>