<svg xmlns="http://www.w3.org/2000/svg" viewBox="0 0 425.68 45.26"><defs><style>.cls-1{fill:#fff;}</style></defs><g id="Layer_2" data-name="Layer 2"><g id="Layer_4" data-name="Layer 4"><path class="cls-1" d="M42.13,9.08l-3.4,2.61A18.6,18.6,0,0,0,32,6.14a19.79,19.79,0,0,0-8.66-1.89,19.12,19.12,0,0,0-9.55,2.47A17.77,17.77,0,0,0,7,13.37a18.45,18.45,0,0,0-2.42,9.39A17.62,17.62,0,0,0,10,35.92a18.74,18.74,0,0,0,13.63,5.27A19.16,19.16,0,0,0,38.73,34.1l3.4,2.58a21.74,21.74,0,0,1-8,6.34,25.16,25.16,0,0,1-10.77,2.24Q12,45.26,5.48,37.73A22.71,22.71,0,0,1,0,22.38,21.32,21.32,0,0,1,6.64,6.46,22.84,22.84,0,0,1,23.26,0a24.4,24.4,0,0,1,10.9,2.39A21.16,21.16,0,0,1,42.13,9.08Z"/><path class="cls-1" d="M87.91,0a22.36,22.36,0,0,1,16.38,6.53,21.76,21.76,0,0,1,6.6,16.09,21.87,21.87,0,0,1-6.58,16.05,21.81,21.81,0,0,1-16,6.59A22.06,22.06,0,0,1,72.07,38.7a21.59,21.59,0,0,1-6.59-15.88,23,23,0,0,1,3-11.51A22.2,22.2,0,0,1,87.91,0Zm.19,4.19A17.76,17.76,0,0,0,79,6.68a17.83,17.83,0,0,0-6.69,6.72,18.59,18.59,0,0,0-2.41,9.41,17.59,17.59,0,0,0,5.33,13A17.54,17.54,0,0,0,88.1,41.07a18.43,18.43,0,0,0,9.28-2.43A17.37,17.37,0,0,0,104,32a18.69,18.69,0,0,0,2.4-9.39,18.21,18.21,0,0,0-2.4-9.28,17.88,17.88,0,0,0-6.73-6.64A18.26,18.26,0,0,0,88.1,4.19Z"/><path class="cls-1" d="M168.91,10.25a18.72,18.72,0,0,0-9.8-7.61q-4.37-1.56-14-1.56h-8.94V23.62h4.13V5.3h3q9.28,0,13.33,1.23a15.22,15.22,0,0,1,8.41,6.06,18.47,18.47,0,0,1,3,10.66,17.47,17.47,0,0,1-2.79,10,14.31,14.31,0,0,1-7.64,5.7q-3.47,1.11-12.4,1.11h-5c-1.56,0-2.55-.06-4.13-.06v4.13h13.71q8.06,0,12.53-2.34a18,18,0,0,0,7.26-7.27,22.61,22.61,0,0,0,2.8-11.4A23.19,23.19,0,0,0,168.91,10.25Z"/><path class="cls-1" d="M197.43,44.18H222V40H201.74V23H222V18.81H197.43Z"/><path class="cls-1" d="M222.13,5.3V1.08h-24.7V5.27l4.31,0h20.39Z"/><path class="cls-1" d="M241.73,36.15,245.39,34q3.87,7.11,8.94,7.11a8.49,8.49,0,0,0,4.07-1,7.11,7.11,0,0,0,2.9-2.71,7,7,0,0,0,1-3.6,7.28,7.28,0,0,0-1.46-4.25,35.21,35.21,0,0,0-7.38-6.91q-5.4-4.08-6.71-5.89a10.73,10.73,0,0,1-2.29-6.59A10,10,0,0,1,245.8,5a9.65,9.65,0,0,1,3.79-3.65A11,11,0,0,1,254.91,0a11.31,11.31,0,0,1,5.7,1.51,19.46,19.46,0,0,1,5.61,5.55L262.7,9.73a16.81,16.81,0,0,0-4.14-4.25,7.09,7.09,0,0,0-3.74-1A5.9,5.9,0,0,0,250.56,6a5.17,5.17,0,0,0-1.65,3.89,6.66,6.66,0,0,0,.58,2.73,10.2,10.2,0,0,0,2.14,2.87c.57.54,2.42,2,5.57,4.3q5.6,4.14,7.67,7.36A11.81,11.81,0,0,1,267,33.66a11,11,0,0,1-3.56,8.15,12,12,0,0,1-8.65,3.45,12.67,12.67,0,0,1-7.12-2.09A19.15,19.15,0,0,1,241.73,36.15Z"/><path class="cls-1" d="M292.06,1.08h4.31v43.1h-4.31Z"/><path class="cls-1" d="M356.41,37.62a17.26,17.26,0,0,1-11,3.54,20.75,20.75,0,0,1-10.08-2.5,18.53,18.53,0,0,1-7.21-6.89,17.86,17.86,0,0,1-2.6-9.24,17.44,17.44,0,0,1,2.52-9,18,18,0,0,1,7.1-6.75,19.94,19.94,0,0,1,9.65-2.49,21.25,21.25,0,0,1,8.37,1.83,25.49,25.49,0,0,1,7.89,5.37l3.34-3.16A30.74,30.74,0,0,0,355,2a26.93,26.93,0,0,0-10.31-2,24.6,24.6,0,0,0-12.13,3,21.94,21.94,0,0,0-8.44,8.25A22.27,22.27,0,0,0,321,22.62a21.62,21.62,0,0,0,5.37,14.5q7,8.15,18.92,8.14,9.84,0,15.72-5.87a18.42,18.42,0,0,0,1.54-1.77Z"/><path class="cls-1" d="M367,23.53H348.4v4.09h18.26A29.65,29.65,0,0,0,367,23.53Z"/><path class="cls-1" d="M425.68,1.08h-4.24v33l-28.69-33h-.93v43.1h4.45V11.55l21.86,25.07h7.55Z"/></g></g></svg>