<svg id="wave" style="transform:rotate(0deg); transition: 0.3s" viewBox="0 0 1440 290" version="1.1" xmlns="http://www.w3.org/2000/svg"><defs><linearGradient id="sw-gradient-0" x1="0" x2="0" y1="1" y2="0"><stop stop-color="rgba(42, 79, 100, 1)" offset="0%"></stop><stop stop-color="rgba(118, 154, 175, 1)" offset="100%"></stop></linearGradient></defs><path style="transform:translate(0, 0px); opacity:1" fill="url(#sw-gradient-0)" d="M0,261L34.3,222.3C68.6,184,137,106,206,101.5C274.3,97,343,164,411,193.3C480,222,549,213,617,178.8C685.7,145,754,87,823,72.5C891.4,58,960,87,1029,87C1097.1,87,1166,58,1234,53.2C1302.9,48,1371,68,1440,101.5C1508.6,135,1577,184,1646,169.2C1714.3,155,1783,77,1851,77.3C1920,77,1989,155,2057,169.2C2125.7,184,2194,135,2263,106.3C2331.4,77,2400,68,2469,82.2C2537.1,97,2606,135,2674,125.7C2742.9,116,2811,58,2880,48.3C2948.6,39,3017,77,3086,120.8C3154.3,164,3223,213,3291,217.5C3360,222,3429,184,3497,145C3565.7,106,3634,68,3703,67.7C3771.4,68,3840,106,3909,111.2C3977.1,116,4046,87,4114,67.7C4182.9,48,4251,39,4320,58C4388.6,77,4457,126,4526,125.7C4594.3,126,4663,77,4731,82.2C4800,87,4869,145,4903,174L4937.1,203L4937.1,290L4902.9,290C4868.6,290,4800,290,4731,290C4662.9,290,4594,290,4526,290C4457.1,290,4389,290,4320,290C4251.4,290,4183,290,4114,290C4045.7,290,3977,290,3909,290C3840,290,3771,290,3703,290C3634.3,290,3566,290,3497,290C3428.6,290,3360,290,3291,290C3222.9,290,3154,290,3086,290C3017.1,290,2949,290,2880,290C2811.4,290,2743,290,2674,290C2605.7,290,2537,290,2469,290C2400,290,2331,290,2263,290C2194.3,290,2126,290,2057,290C1988.6,290,1920,290,1851,290C1782.9,290,1714,290,1646,290C1577.1,290,1509,290,1440,290C1371.4,290,1303,290,1234,290C1165.7,290,1097,290,1029,290C960,290,891,290,823,290C754.3,290,686,290,617,290C548.6,290,480,290,411,290C342.9,290,274,290,206,290C137.1,290,69,290,34,290L0,290Z"></path><defs><linearGradient id="sw-gradient-1" x1="0" x2="0" y1="1" y2="0"><stop stop-color="rgba(118, 154, 175, 1)" offset="0%"></stop><stop stop-color="rgba(42, 79, 100, 1)" offset="100%"></stop></linearGradient></defs><path style="transform:translate(0, 50px); opacity:0.9" fill="url(#sw-gradient-1)" d="M0,58L34.3,62.8C68.6,68,137,77,206,101.5C274.3,126,343,164,411,193.3C480,222,549,242,617,207.8C685.7,174,754,87,823,58C891.4,29,960,58,1029,91.8C1097.1,126,1166,164,1234,164.3C1302.9,164,1371,126,1440,111.2C1508.6,97,1577,106,1646,116C1714.3,126,1783,135,1851,125.7C1920,116,1989,87,2057,62.8C2125.7,39,2194,19,2263,9.7C2331.4,0,2400,0,2469,33.8C2537.1,68,2606,135,2674,159.5C2742.9,184,2811,164,2880,159.5C2948.6,155,3017,164,3086,154.7C3154.3,145,3223,116,3291,130.5C3360,145,3429,203,3497,227.2C3565.7,251,3634,242,3703,227.2C3771.4,213,3840,193,3909,164.3C3977.1,135,4046,97,4114,82.2C4182.9,68,4251,77,4320,111.2C4388.6,145,4457,203,4526,232C4594.3,261,4663,261,4731,251.3C4800,242,4869,222,4903,212.7L4937.1,203L4937.1,290L4902.9,290C4868.6,290,4800,290,4731,290C4662.9,290,4594,290,4526,290C4457.1,290,4389,290,4320,290C4251.4,290,4183,290,4114,290C4045.7,290,3977,290,3909,290C3840,290,3771,290,3703,290C3634.3,290,3566,290,3497,290C3428.6,290,3360,290,3291,290C3222.9,290,3154,290,3086,290C3017.1,290,2949,290,2880,290C2811.4,290,2743,290,2674,290C2605.7,290,2537,290,2469,290C2400,290,2331,290,2263,290C2194.3,290,2126,290,2057,290C1988.6,290,1920,290,1851,290C1782.9,290,1714,290,1646,290C1577.1,290,1509,290,1440,290C1371.4,290,1303,290,1234,290C1165.7,290,1097,290,1029,290C960,290,891,290,823,290C754.3,290,686,290,617,290C548.6,290,480,290,411,290C342.9,290,274,290,206,290C137.1,290,69,290,34,290L0,290Z"></path></svg>